<svg xmlns="http://www.w3.org/2000/svg" width="190" height="10" viewBox="0 0 190 100" fill="none"><g clip-path="url(#clip0_1358_10173)"><path d="M10.8154 47.8139H3.94262C3.92166 47.4574 3.83785 47.08 3.8588 46.7235C4.21502 38.2522 5.36747 29.9276 7.67237 21.7288C10.103 13.0267 16.1795 9.06365 24.6448 7.91037C26.4468 7.65874 28.2907 7.63778 30.0928 7.63778C43.9431 7.63778 57.8144 7.65875 71.6648 7.61681C78.789 7.59584 85.0332 4.93281 90.7536 0.86487C91.3612 0.424526 92.1993 0.193869 92.9746 0.0890257C95.1748 -0.246474 96.9768 0.487432 98.8626 1.76653C104.583 5.64574 110.827 7.78456 117.93 7.70068C132.43 7.51196 146.951 7.59584 161.472 7.65875C167.088 7.67971 172.284 9.06365 176.684 12.7961C179.429 15.1236 180.791 18.248 181.818 21.5191C183.767 27.7049 184.752 34.0794 185.317 40.5168C185.506 42.5507 185.59 44.5847 185.778 46.6187C185.862 47.5623 185.611 47.9607 184.584 47.9187C182.677 47.8349 180.77 47.8978 178.822 47.8978C178.654 45.5493 178.612 43.3476 178.298 41.1668C177.669 36.8053 176.957 32.4438 176.119 28.1033C175.071 22.6514 171.509 19.59 166.229 18.5206C163.274 17.9125 160.236 17.4512 157.218 17.4092C143.536 17.2834 129.853 17.3463 116.149 17.3463C111.33 17.3463 106.678 16.5285 102.529 14.0123C99.9312 12.4396 97.5425 10.5734 95.1119 8.74912C94.3785 8.20393 93.9385 8.14103 93.247 8.74912C92.2832 9.60884 91.1936 10.3637 90.1668 11.1396C84.5932 15.4172 78.328 17.4302 71.2667 17.3673C58.443 17.2624 45.6404 17.3253 32.8167 17.3463C29.066 17.3463 25.3782 17.7657 21.7742 18.9399C17.6673 20.2819 15.0061 22.9869 13.7699 27.1177C12.2403 32.2132 11.6117 37.4553 11.1507 42.7185C11.004 44.3541 10.9411 46.0106 10.8364 47.7929L10.8154 47.8139Z" fill="white"></path><path d="M23.5511 92.3727C25.8979 94.1131 27.9933 95.6228 30.5077 96.4406C31.2202 96.6713 32.0164 96.839 31.7021 97.8875C31.4087 98.8311 31.5764 100.215 29.8582 99.9214C29.3972 99.8376 28.8943 99.8585 28.4333 99.9214C25.9189 100.278 23.9073 99.2924 21.9796 97.7616C20.1985 96.3358 18.2918 95.0357 16.385 93.7357C15.945 93.4211 15.3582 93.1905 14.8344 93.1695C5.8453 92.6243 1.96887 87.1305 0.585931 80.1689C-0.419844 75.0315 -0.189354 69.999 1.46598 65.0504C3.01655 60.4582 6.11769 57.4178 10.8951 56.2016C14.3525 55.3209 17.8517 55.1531 21.351 55.8661C27.3018 57.0823 30.8849 60.8776 32.3726 66.5601C33.8394 72.1588 33.7555 77.8204 32.0164 83.3561C30.8639 86.9837 28.559 89.7096 25.1226 91.4501C24.6826 91.6807 24.2635 91.9533 23.5511 92.3727ZM26.0446 73.8363C25.9817 72.8717 25.8979 71.1942 25.7303 69.5167C25.1646 64.1487 22.692 61.3179 17.8308 60.7518C13.3257 60.2276 9.78458 61.968 8.42259 66.4763C6.80916 71.7814 6.95584 77.1703 8.44355 82.4754C9.21883 85.2014 11.1047 87.0676 13.9544 87.6128C15.4211 87.8854 16.9717 87.9063 18.4594 87.7805C21.5186 87.5289 23.5302 85.7466 24.7036 82.9787C25.856 80.2947 25.9608 77.4429 26.0446 73.8573V73.8363Z" fill="white"></path><path d="M183.175 72.5773C184.243 73.2064 185.291 73.6677 186.129 74.3596C189.587 77.1485 189.922 80.9438 189.105 84.886C188.329 88.5974 185.626 90.7153 182.148 91.7637C180.472 92.267 178.67 92.4976 176.91 92.5396C172.405 92.6444 167.879 92.5605 163.353 92.6234C162.347 92.6234 162.095 92.267 162.116 91.3234C162.137 79.9583 162.137 68.6142 162.116 57.2491C162.116 56.1588 162.515 55.9281 163.478 55.9281C167.9 55.97 172.342 55.8862 176.763 55.97C179.717 56.0329 182.546 56.6201 184.893 58.6121C188.79 61.9461 188.413 68.9078 184.16 71.7805C183.824 72.0111 183.51 72.2837 183.175 72.5354V72.5773ZM169.157 81.3422C169.157 83.0197 169.157 84.7182 169.157 86.3957C169.157 87.1086 169.345 87.57 170.184 87.549C172.258 87.5071 174.353 87.549 176.428 87.4441C180.011 87.2345 182.211 85.1376 182.42 81.8665C182.63 78.3856 180.954 76.2468 177.203 75.7016C174.94 75.3661 172.635 75.3871 170.33 75.2613C169.471 75.2194 169.115 75.6387 169.157 76.5404C169.22 78.134 169.157 79.7486 169.157 81.3422ZM169.157 65.6576C169.157 65.6576 169.157 65.6576 169.136 65.6576C169.136 66.8319 169.052 68.0061 169.178 69.1594C169.22 69.5578 169.744 70.2498 170.037 70.2498C172.342 70.2498 174.647 70.2498 176.931 69.9772C179.11 69.7046 180.346 68.09 180.472 65.9302C180.598 63.6656 179.717 62.009 177.434 61.5897C174.94 61.1284 172.363 61.2122 169.806 61.1284C169.597 61.1284 169.22 61.6945 169.199 62.009C169.136 63.2252 169.178 64.4414 169.178 65.6576H169.157Z" fill="white"></path><path d="M85.5146 81.2315C82.8326 81.2315 80.1295 81.2734 77.4475 81.2105C76.3369 81.1896 76.1274 81.588 76.2322 82.5945C76.5884 86.1172 78.5999 88.0463 82.162 88.256C84.9908 88.4238 87.6938 87.8367 90.313 86.914C91.1512 86.6205 91.6121 86.7253 91.8636 87.606C92.136 88.5706 92.4712 89.4932 92.8275 90.4368C93.0998 91.1707 92.8694 91.611 92.136 91.8207C87.3586 93.1627 82.5183 93.8127 77.6151 92.6385C73.131 91.5481 70.428 88.7173 69.506 84.1461C68.7936 80.6653 69.0032 77.2474 70.0299 73.8715C71.2662 69.7616 73.9901 67.1824 78.1809 66.092C80.9677 65.3791 83.7545 65.3372 86.5623 65.9662C91.1931 66.9937 94.2942 70.8729 94.7971 76.2829C94.9019 77.4991 94.8809 78.7152 95.0066 79.9105C95.1114 81.0218 94.6504 81.3573 93.6027 81.3573C90.9207 81.3154 88.2177 81.3573 85.5356 81.3573C85.5356 81.3154 85.5356 81.2944 85.5356 81.2525L85.5146 81.2315ZM82.0782 76.5764C83.6707 76.5764 85.2841 76.6184 86.8766 76.5555C87.2119 76.5555 87.8405 76.0941 87.8195 75.9054C87.61 73.9553 87.0442 72.173 85.1584 71.1455C81.4496 69.1535 77.0913 71.3762 76.3369 75.6119C76.1903 76.4296 76.5884 76.5974 77.2589 76.5764C78.8514 76.5764 80.4648 76.5764 82.0573 76.5764H82.0782Z" fill="white"></path><path d="M115.324 81.2573C112.579 81.2573 109.855 81.2992 107.11 81.2573C106.147 81.2573 105.916 81.6137 106 82.4944C106.335 86.0801 108.493 88.135 112.139 88.2818C114.863 88.4076 117.503 87.9253 120.039 86.9398C120.94 86.5833 121.401 86.7092 121.694 87.6527C121.988 88.5963 122.428 89.519 122.616 90.4835C122.7 90.8819 122.344 91.6787 122.029 91.7626C116.477 93.3143 110.882 94.195 105.329 91.8255C101.977 90.3997 99.9862 87.7786 99.3367 84.1719C98.7081 80.5653 98.7709 77.0216 99.9653 73.5198C101.285 69.5987 103.905 67.0405 107.928 66.034C111.155 65.2162 114.402 65.2791 117.566 66.3485C121.757 67.7744 123.811 71.0036 124.46 75.1763C124.712 76.8329 124.67 78.5523 124.795 80.2298C124.858 81.1105 124.481 81.3412 123.643 81.3412C120.856 81.2992 118.09 81.3412 115.303 81.3412C115.303 81.3412 115.303 81.2992 115.303 81.2782L115.324 81.2573ZM117.776 76.4764C117.587 74.2537 117.105 72.2827 115.115 71.1923C113.04 70.039 110.819 70.1438 108.808 71.381C106.985 72.5133 106.377 74.3795 106.084 76.4764H117.776Z" fill="white"></path><path d="M137.703 70.559C138.311 69.909 138.814 69.3847 139.275 68.8605C142.146 65.6313 146.106 64.6039 150.129 66.1555C153.544 67.4766 154.802 70.3912 154.948 73.7043C155.221 79.5965 155.2 85.4887 155.242 91.381C155.242 91.7794 154.739 92.5342 154.445 92.5342C152.371 92.6391 150.297 92.5972 148.034 92.5972V90.9616C148.034 85.6775 148.034 80.3724 148.034 75.0882C148.034 73.3478 147.51 71.901 145.917 71.0832C144.325 70.2654 142.774 70.7477 141.559 71.7961C140.302 72.8865 139.212 74.2075 138.185 75.5286C137.829 75.9689 137.829 76.7657 137.829 77.3948C137.808 82.0289 137.787 86.663 137.829 91.3181C137.829 92.3246 137.599 92.702 136.509 92.6181C135.084 92.5133 133.638 92.5342 132.214 92.6181C131.166 92.681 130.747 92.4294 130.768 91.2761C130.831 86.9775 130.873 82.6999 130.768 78.4013C130.684 74.8576 130.328 71.3348 130.16 67.7911C130.16 67.4556 130.516 66.8475 130.831 66.7636C132.549 66.3023 134.288 65.9249 136.027 65.6313C136.3 65.5894 136.886 66.1555 136.991 66.512C137.305 67.7492 137.452 69.0283 137.683 70.538L137.703 70.559Z" fill="white"></path><path d="M56.6984 88.1694C56.0698 88.8404 55.6508 89.2388 55.2945 89.7002C52.7173 93.1181 46.976 94.3972 43.2672 92.3213C41.3813 91.2518 40.187 89.5534 39.8727 87.4565C39.4746 84.9402 39.286 82.3821 39.2231 79.8448C39.1183 75.735 39.2231 71.6041 39.1812 67.4942C39.1812 66.4877 39.4117 66.0893 40.4803 66.1522C41.9052 66.2361 43.351 66.2361 44.7758 66.1522C45.9283 66.0684 46.2845 66.4668 46.2635 67.6201C46.2007 72.6526 46.2426 77.6641 46.2635 82.6966C46.2635 83.5563 46.2635 84.437 46.4731 85.2757C46.955 87.4984 48.9875 88.5888 51.1457 87.8759C54.1211 86.8903 56.5727 83.4934 56.5518 80.39C56.5518 76.0495 56.5518 71.7299 56.5099 67.3894C56.5099 66.4877 56.7823 66.1313 57.7042 66.1522C59.171 66.1942 60.6587 66.2361 62.1254 66.1522C63.2779 66.0893 63.6341 66.5297 63.6341 67.641C63.5922 72.359 63.5503 77.077 63.6341 81.8159C63.697 84.8354 64.0113 87.8549 64.137 90.8744C64.137 91.2099 63.8227 91.818 63.5503 91.9019C61.8321 92.3842 60.1139 92.7826 58.3538 93.0761C58.0395 93.1181 57.3899 92.5309 57.3061 92.1535C57.0127 90.9793 56.887 89.7421 56.6565 88.1694H56.6984Z" fill="white"></path></g><defs><clipPath id="clip0_1358_10173"><rect width="189.484" height="100" fill="white"></rect></clipPath></defs></svg>